<?xml version="1.0" encoding="UTF-8"?>
<!-- Generator: Adobe Illustrator 21.0.0, SVG Export Plug-In . SVG Version: 6.00 Build 0)  -->
<svg version="1.1" id="_x3C_图层_x3E_" xmlns="http://www.w3.org/2000/svg" xmlns:xlink="http://www.w3.org/1999/xlink" x="0px" y="0px" viewBox="0 0 105 75.8" style="enable-background:new 0 0 105 75.8;" xml:space="preserve">
<g>
	<path d="M0.6,59.1V19.1h33.4c3.4,0,5,2.3,5,4.9v35.1h-9.3V28.6h-5.3v30.4h-9.2V28.6h-5.2v30.4H0.6z"/>
	<rect x="43.8" y="19.1" width="9.7" height="39.9"/>
	<path d="M58,19.1h27.7c2.8,0,4.7,2,4.7,4.8v30.3c0,2.9-2.6,4.9-4.7,4.9H58V34.4h9.4v15h13.7V28.9H58V19.1z"/>
	<rect x="95.2" y="19.1" width="9.7" height="39.9"/>
	<rect x="0.6" y="62.5" width="104.4" height="13.2"/>
	<g>
		<path d="M2.7,8c0,0.9,0.1,1.7,0.4,2.4c0.2,0.7,0.6,1.3,1,1.8S5,13,5.5,13.2c0.6,0.2,1.1,0.4,1.8,0.4c0.5,0,1-0.1,1.5-0.3    c0.5-0.2,0.9-0.5,1.3-0.9c0.4-0.4,0.7-0.8,1-1.3c0.3-0.5,0.4-1,0.5-1.6H7V7.1h7.3v8.4h-2L12,13.8c-0.3,0.3-0.6,0.6-1,0.8    c-0.4,0.3-0.8,0.5-1.2,0.7c-0.4,0.2-0.8,0.4-1.2,0.5S7.8,16,7.3,16c-1.1,0-2.2-0.2-3.1-0.6s-1.7-1-2.3-1.7    c-0.6-0.7-1.1-1.6-1.5-2.5C0.2,10.2,0,9.1,0,8C0,7,0.2,6,0.5,5.1c0.3-1,0.8-1.8,1.4-2.6c0.6-0.8,1.4-1.4,2.3-1.8S6.1,0,7.2,0    c1,0,1.9,0.1,2.6,0.4c0.8,0.3,1.5,0.7,2,1.1s1.1,1.1,1.5,1.7s0.7,1.4,1,2.2h-2.8c-0.4-1.1-0.9-1.8-1.6-2.4    C9.2,2.6,8.3,2.3,7.2,2.3C6.6,2.3,6,2.5,5.4,2.8C4.8,3.1,4.4,3.5,4,4C3.5,4.5,3.2,5.1,3,5.8C2.8,6.5,2.7,7.2,2.7,8z"/>
		<path d="M28.9,0.4v2.4h-8.4v3.8h7.9V9h-7.9v4.2h8.8v2.4H17.8V0.4H28.9z"/>
		<path d="M35.6,0.4l6.8,10.8V0.4H45v15.2h-3L35.2,4.8v10.8h-2.7V0.4H35.6z"/>
		<path d="M59.5,0.4v2.4h-8.4v3.8H59V9h-7.9v4.2h8.8v2.4H48.4V0.4H59.5z"/>
		<path d="M74.9,5c0,0.6-0.1,1.2-0.4,1.8c-0.3,0.6-0.6,1.1-1.1,1.5c0.3,0.2,0.5,0.3,0.7,0.5c0.2,0.2,0.3,0.4,0.4,0.7    c0.1,0.3,0.2,0.5,0.2,0.8c0,0.3,0,0.6,0,0.9v2.1c0,0.2,0.1,0.6,0.2,1c0.2,0.4,0.4,0.8,0.6,1.2h-3c-0.2-0.4-0.4-0.8-0.5-1.2    c-0.1-0.4-0.1-0.7-0.1-1v-2.3c0-0.2,0-0.4-0.1-0.6c-0.1-0.2-0.2-0.4-0.4-0.5c-0.2-0.2-0.4-0.3-0.7-0.4c-0.3-0.1-0.6-0.2-1-0.2h-4    v6.1h-2.7V0.4h6.7c0.8,0,1.5,0.1,2.2,0.4c0.6,0.3,1.2,0.6,1.6,1.1c0.4,0.4,0.8,0.9,1,1.5C74.8,3.9,74.9,4.4,74.9,5z M65.8,7.1h4    c0.3,0,0.6-0.1,0.9-0.2c0.3-0.1,0.5-0.3,0.8-0.5c0.2-0.2,0.4-0.4,0.5-0.7s0.2-0.6,0.2-0.9c0-0.6-0.2-1.1-0.7-1.5    c-0.4-0.4-1-0.6-1.7-0.6h-4V7.1z"/>
		<path d="M86.4,0.4l5.9,15.2h-2.8l-1.7-4.3h-5.6l-1.7,4.3h-2.9l5.9-15.2H86.4z M84.9,3.9l-1.9,5h3.9L84.9,3.9z"/>
		<path d="M97.3,0.4v12.8h7.6v2.4H94.6V0.4H97.3z"/>
	</g>
</g>
</svg>