<?xml version="1.0" encoding="UTF-8"?>
<!-- Generator: Adobe Illustrator 21.0.0, SVG Export Plug-In . SVG Version: 6.00 Build 0)  -->
<svg version="1.1" id="_x3C_图层_x3E_" xmlns="http://www.w3.org/2000/svg" xmlns:xlink="http://www.w3.org/1999/xlink" x="0px" y="0px" viewBox="0 0 71.9 53.5" style="enable-background:new 0 0 71.9 53.5;" xml:space="preserve">
<g>
	<g>
		<path d="M196.8,165.6h-10.3l-7.8,7.8c-0.2,0.2-0.1,0.6,0.2,0.6c0.3,0,11.6,0,11.6,0l-6.7,6.6h-5.7c0,0-8.5-8.4-9.1-9    c-0.3-0.3-0.4-0.6-0.4-1c0-0.4,0.2-0.7,0.4-0.9c0.4-0.4,9.1-9.1,9.1-9.1h13.7c0,0,9.2-9.1,9.4-9.4c0.2-0.2,0.1-0.6-0.2-0.6    c-0.4,0-27.5,0-27.5,0s-18.5,18.5-19,19c-0.3,0.3-0.4,0.6-0.4,0.9c0,0.4,0.1,0.7,0.3,0.9c0.4,0.4,19.1,19.1,19.1,19.1h15.1    c0,0,15.2-15.2,15.7-15.7c0.5-0.5,0.5-1.4,0-1.9L196.8,165.6z"/>
		<path d="M208.5,150.7c0,0-8.6,8.5-9.1,9c-0.5,0.5-0.6,1.4-0.1,1.9c0.5,0.5,11,11,11.5,11.5c0.5,0.5,0.6,1.4,0,1.9    c-0.6,0.6-28.3,28.2-28.5,28.4c-0.2,0.2-0.1,0.6,0.2,0.6c0.3,0,13.8,0,13.8,0s28.5-28.4,29-28.9c0.6-0.6,0.6-1.4,0-2    c-0.6-0.5-11-11-11.4-11.5c-0.5-0.5-0.5-1.3,0-1.8c0.4-0.5,8.2-8.2,8.4-8.4c0.2-0.2,0.1-0.6-0.2-0.6    C222,150.7,208.5,150.7,208.5,150.7z"/>
	</g>
</g>
<g>
	<g>
		<path d="M42.8,15.2H32.5L24.7,23c-0.2,0.2-0.1,0.6,0.2,0.6c0.3,0,11.6,0,11.6,0l-6.7,6.6h-5.7c0,0-8.5-8.4-9.1-9    c-0.3-0.3-0.4-0.6-0.4-1c0-0.4,0.2-0.7,0.4-0.9c0.4-0.4,9.1-9.1,9.1-9.1h13.7c0,0,9.2-9.1,9.4-9.4c0.2-0.2,0.1-0.6-0.2-0.6    c-0.4,0-27.5,0-27.5,0S1,18.7,0.4,19.3C0.1,19.6,0,19.9,0,20.2c0,0.4,0.1,0.7,0.3,0.9c0.4,0.4,19.1,19.1,19.1,19.1h15.1    c0,0,15.2-15.2,15.7-15.7c0.5-0.5,0.5-1.4,0-1.9L42.8,15.2z"/>
		<path d="M54.5,0.2c0,0-8.6,8.5-9.1,9c-0.5,0.5-0.6,1.4-0.1,1.9c0.5,0.5,11,11,11.5,11.5c0.5,0.5,0.6,1.4,0,1.9    c-0.6,0.6-28.3,28.2-28.5,28.4c-0.2,0.2-0.1,0.6,0.2,0.6c0.3,0,13.8,0,13.8,0s28.5-28.4,29-28.9c0.6-0.6,0.6-1.4,0-2    c-0.6-0.5-11-11-11.4-11.5c-0.5-0.5-0.5-1.3,0-1.8c0.4-0.5,8.2-8.2,8.4-8.4c0.2-0.2,0.1-0.6-0.2-0.6C68,0.2,54.5,0.2,54.5,0.2z"/>
	</g>
</g>
<path d="M400.6,248.1h1l0.9,1l0.9-1h1l-1.3,1.6l1.4,1.7h-1l-0.9-1.2l-0.9,1.2h-1l1.4-1.6L400.6,248.1z"/>
<path d="M406.5,248.7h1.9v-0.6h-1.9c-1.3,0-1.9,0.5-1.9,1.7c0,0.6,0.2,1,0.6,1.3c0.4,0.3,0.8,0.3,1.3,0.3h1.9v-1.9h-2.1v0.6  c0,0,1,0,1,0c0,0,0.2-0.1,0.3-0.2l0.1,0.1c-0.1,0.1-0.2,0.1-0.2,0.2c0,0.1,0,0.4,0,0.4c0,0,0.1,0.1,0.2,0.2l-0.1,0.1  c-0.1-0.1-0.2-0.2-0.3-0.2c0,0-0.8,0-0.8,0c-0.7,0-1-0.3-1-1C405.5,249.1,405.8,248.7,406.5,248.7z"/>
<path d="M409.3,251.4v-3.3h0.8v3.3H409.3z"/>
<path d="M410.8,251.4v-2.4h0.8v2.4H410.8z M410.8,248.6v-0.5h0.8v0.5H410.8z"/>
<path d="M413.5,250.5c0,0,0-0.7,0-0.7c0-0.1-0.1-0.2-0.2-0.2l0.1-0.1c0.1,0.1,0.2,0.1,0.2,0.1s0.7,0,0.7,0v-0.5c0,0-0.7,0-0.7,0  c-0.1,0-0.1,0.1-0.2,0.1l-0.1-0.1c0.1-0.1,0.2-0.1,0.2-0.2c0-0.1,0-0.7,0-0.7h-0.8c0,0,0,0.7,0,0.7s0.1,0.1,0.2,0.2l-0.1,0.1  c-0.1-0.1-0.2-0.1-0.2-0.1c-0.1,0-0.4,0-0.4,0v0.5c0,0,0.4,0,0.4,0c0,0,0.1-0.1,0.2-0.1l0.1,0.1c-0.1,0.1-0.2,0.2-0.2,0.2  c0,0.1,0,0.9,0,0.9c0,0.5,0.3,0.8,0.9,0.8h0.7v-0.5H414C413.6,250.9,413.5,250.8,413.5,250.5z"/>
<path d="M417.4,238.6C417.3,238.6,417.3,238.6,417.4,238.6l-9.1,0l-2.3,2.7c0,0.1-0.1,0.1-0.2,0.1c-0.1,0-0.1,0-0.2,0  c-0.1,0-0.1-0.1-0.2-0.1l-2.3-2.7h-2.3c0,0-0.1,0-0.1,0c0,0,0,0.1,0,0.1c0,0,0,0.1,0,0.1l2.7,3.1c0.1,0.1,0.2,0.2,0.3,0.4  c0.2,0.2,0.3,0.5,0.3,0.8c0,0.3-0.1,0.6-0.3,0.8c-0.1,0.1-0.2,0.2-0.3,0.3l-2.7,3.2c0,0,0,0.1,0,0.1c0,0,0,0.1,0,0.1  c0,0,0.1,0,0.1,0h2.3l2.3-2.7c0-0.1,0.1-0.1,0.2-0.1c0.1,0,0.1,0,0.2,0c0.1,0,0.1,0.1,0.2,0.1l2.3,2.7h9.1c0,0,0.1,0,0.1,0  c0,0,0-0.1,0-0.1L417.4,238.6C417.4,238.7,417.4,238.6,417.4,238.6z M416.6,240.9C416.6,240.9,416.6,240.9,416.6,240.9  c-0.1,0.1-0.1,0.1-0.1,0.1h-5.2c-0.1,0-0.1,0-0.2,0c-0.1,0-0.1,0.1-0.1,0.1l-1.4,1.7c-0.1,0.1-0.1,0.2-0.1,0.2c0,0.1,0,0.2,0.1,0.3  l1.4,1.7c0,0,0.1,0.1,0.1,0.1c0.1,0,0.1,0,0.2,0h3.6v-1.3h-1.9c0,0-0.1,0-0.1,0c0,0,0-0.1,0-0.1v-1.3c0,0,0-0.1,0-0.1  c0,0,0.1,0,0.1,0h3.6c0,0,0.1,0,0.1,0c0,0,0,0.1,0,0.1v4.2c0,0,0,0.1,0,0.1c0,0-0.1,0-0.1,0h-5.8c-0.2,0-0.4,0-0.5-0.1  c-0.2-0.1-0.3-0.2-0.4-0.3l-1.9-2.1c-0.1-0.1-0.2-0.2-0.3-0.3c-0.2-0.2-0.3-0.5-0.3-0.8c0-0.3,0.1-0.6,0.3-0.8  c0.1-0.1,0.2-0.2,0.3-0.4l1.9-2.2c0.1-0.1,0.3-0.3,0.4-0.3c0.2-0.1,0.4-0.1,0.5-0.1h5.8c0,0,0.1,0,0.1,0c0,0,0,0.1,0,0.1V240.9z"/>
<path d="M235.2,229.3c-0.1-0.1-0.2-0.2-0.4-0.2h-40.2L184.3,241c-0.2,0.2-0.5,0.4-0.8,0.5c-0.3,0.1-0.6,0.1-0.9,0  c-0.3-0.1-0.6-0.3-0.8-0.5l-10.3-11.9h-10.1c-0.1,0-0.3,0.1-0.4,0.2c-0.1,0.1-0.2,0.2-0.2,0.4c0,0.1,0,0.3,0.1,0.4l12.1,13.9  c0.4,0.5,0.9,1.1,1.3,1.6c0.8,1,1.2,2.2,1.2,3.5c0,1.3-0.4,2.5-1.2,3.5c-0.4,0.5-0.8,1.1-1.3,1.6l-12.1,14c-0.1,0.1-0.1,0.3-0.1,0.4  c0,0.1,0.1,0.3,0.2,0.4c0.1,0.1,0.3,0.2,0.4,0.2h10.1l10.3-11.9c0.2-0.2,0.5-0.4,0.8-0.5c0.3-0.1,0.6-0.1,0.9,0  c0.3,0.1,0.6,0.3,0.8,0.5l10.3,11.9h40.2c0.2,0,0.3-0.1,0.4-0.2c0.1-0.1,0.2-0.3,0.2-0.4v-38.8C235.4,229.5,235.3,229.4,235.2,229.3  z M232,239.3c0,0.2-0.1,0.3-0.2,0.4c-0.1,0.1-0.3,0.2-0.4,0.2h-23.2c-0.2,0-0.5,0.1-0.7,0.2c-0.2,0.1-0.4,0.3-0.6,0.5l-6.3,7.5  c-0.3,0.3-0.4,0.7-0.4,1.1c0,0.4,0.1,0.8,0.4,1.1l6.3,7.4c0.2,0.2,0.4,0.3,0.6,0.5c0.2,0.1,0.5,0.2,0.7,0.2H224v-5.7h-8.6  c-0.1,0-0.3,0-0.4-0.1c-0.1-0.1-0.2-0.3-0.2-0.4v-5.8c0-0.1,0.1-0.3,0.2-0.4c0.1-0.1,0.3-0.2,0.4-0.2h16c0.1,0,0.3,0.1,0.4,0.2  c0.1,0.1,0.2,0.2,0.2,0.4V265c0,0.2-0.1,0.3-0.2,0.4c-0.1,0.1-0.3,0.2-0.4,0.2h-25.7c-0.8,0-1.6-0.2-2.4-0.5c-0.7-0.4-1.4-0.9-2-1.5  l-8.2-9.5c-0.4-0.5-0.9-1-1.3-1.6c-0.8-1-1.2-2.2-1.2-3.5c0-1.2,0.4-2.5,1.2-3.5c0.4-0.6,0.8-1.1,1.3-1.6l8.2-9.5  c0.5-0.6,1.2-1.1,2-1.5c0.8-0.3,1.6-0.5,2.4-0.5h25.7c0.1,0,0.3,0.1,0.4,0.2c0.1,0.1,0.2,0.3,0.2,0.4V239.3z"/>
<path d="M417.4,249.5V249h-1.2c-1,0-1.5,0.4-1.5,1.2c0,0.8,0.5,1.2,1.5,1.2h1.2v-0.5h-1.1c-0.4,0-0.6,0-0.7-0.3c0,0,0,0,0-0.1  c0,0-0.2-0.2-0.2-0.2l0.1-0.1c0,0,0.2,0.1,0.2,0.1c0.1,0,1.7,0,1.7,0V250c0,0-1.7,0-1.7,0c-0.1,0-0.2,0.1-0.2,0.1l-0.1-0.1  c0,0,0.1-0.1,0.2-0.2c0,0,0.1-0.1,0.1-0.1l0,0c0.1-0.2,0.3-0.2,0.7-0.2H417.4z"/>
<g>
	<g>
		<path d="M424.6,242c-0.1,0.6-0.1,1.7,1.8,1.7c1,0,2.2-0.2,2.5-1.3c0.2-0.8-0.6-1-1.6-1.3l-1.1-0.3c-1.6-0.4-3.1-0.8-2.7-3.1    c0.2-1.2,1.3-3.2,4.7-3.2c3.2,0,3.6,2.1,3.3,3.4h-2.1c0-0.5,0.1-1.6-1.8-1.6c-0.8,0-1.9,0.3-2.1,1.2c-0.2,0.8,0.5,1,0.9,1.1    l2.4,0.6c1.3,0.3,2.5,0.9,2.1,2.8c-0.7,3.1-3.9,3.4-4.8,3.4c-3.8,0-4-2.2-3.7-3.5H424.6z"/>
		<path d="M442,245.2h-2l1.8-8.7h0l-3.8,8.7h-2.1l0-8.7h0l-1.8,8.7h-2l2.2-10.4h3.2l0.1,8.2h0l3.6-8.2h3.1L442,245.2z"/>
		<path d="M446.3,245.2h-2.2l2.2-10.4h7.4l-0.4,1.8h-5.2l-0.5,2.3h4.6l-0.4,1.8h-4.6L446.3,245.2z"/>
	</g>
	<g>
		<path d="M423.7,250.5h2.6l-0.2,0.9h-3.7l1.1-5.2h1.1L423.7,250.5z"/>
		<path d="M429.1,251.4H428l0.4-2l-1.1-3.2h1.3l0.6,2.3l1.5-2.3h1.2l-2.4,3.2L429.1,251.4z"/>
		<path d="M433.3,246.2h2.6c1.4,0,1.4,1,1.3,1.5c-0.1,0.6-0.5,1.1-1.1,1.2c0.4,0.2,0.6,0.3,0.4,1.3c-0.2,0.8-0.2,0.9,0,1l0,0.1h-1.2    c0-0.2,0-0.5,0.1-1c0.2-0.7,0.2-1-0.6-1h-1.1l-0.4,2h-1.1L433.3,246.2z M435.2,248.5c0.6,0,0.9-0.2,1-0.7c0.1-0.3,0-0.7-0.6-0.7    h-1.4l-0.3,1.4H435.2z"/>
		<path d="M439.2,251.4h-1.1l1.1-5.2h1.1L439.2,251.4z"/>
		<path d="M444.9,247.9c0-0.3-0.1-0.9-1-0.9c-0.5,0-1.4,0.4-1.7,1.8c-0.2,0.9,0,1.8,0.9,1.8c0.6,0,1.1-0.3,1.4-1h1.1    c-0.5,1.1-1.4,1.9-2.7,1.9c-1.4,0-2.2-0.9-1.8-2.7c0.4-1.8,1.6-2.7,3-2.7c1.5,0,2,1.1,1.8,1.8H444.9z"/>
		<path d="M447.9,249.8c-0.1,0.3,0,0.8,0.9,0.8c0.5,0,1.1-0.1,1.2-0.7c0.1-0.4-0.3-0.5-0.8-0.6l-0.5-0.1c-0.8-0.2-1.6-0.4-1.3-1.5    c0.1-0.6,0.6-1.6,2.3-1.6c1.6,0,1.8,1,1.7,1.7h-1c0-0.2,0.1-0.8-0.9-0.8c-0.4,0-0.9,0.1-1,0.6c-0.1,0.4,0.2,0.5,0.4,0.5l1.2,0.3    c0.7,0.2,1.3,0.5,1.1,1.4c-0.3,1.6-1.9,1.7-2.4,1.7c-1.9,0-2-1.1-1.9-1.7H447.9z"/>
	</g>
</g>
<g>
	<path d="M154.2-9.8v-39.9h33.4c3.4,0,5,2.3,5,4.9v35.1h-9.3v-30.4H178v30.4h-9.2v-30.4h-5.2v30.4H154.2z"/>
	<rect x="197.4" y="-49.8" width="9.7" height="39.9"/>
	<path d="M211.6-49.8h27.7c2.8,0,4.7,2,4.7,4.8v30.3c0,2.9-2.6,4.9-4.7,4.9h-27.7v-24.7h9.4v15h13.7v-20.6h-23.1V-49.8z"/>
	<rect x="248.8" y="-49.8" width="9.7" height="39.9"/>
	<rect x="154.2" y="-6.4" width="104.4" height="13.2"/>
	<g>
		<path d="M156.3-60.9c0,0.9,0.1,1.7,0.4,2.4c0.2,0.7,0.6,1.3,1,1.8s0.9,0.8,1.5,1.1c0.6,0.2,1.1,0.4,1.8,0.4c0.5,0,1-0.1,1.5-0.3    c0.5-0.2,0.9-0.5,1.3-0.9c0.4-0.4,0.7-0.8,1-1.3c0.3-0.5,0.4-1,0.5-1.6h-4.6v-2.4h7.3v8.4h-2l-0.3-1.8c-0.3,0.3-0.6,0.6-1,0.8    c-0.4,0.3-0.8,0.5-1.2,0.7c-0.4,0.2-0.8,0.4-1.2,0.5s-0.8,0.2-1.3,0.2c-1.1,0-2.2-0.2-3.1-0.6s-1.7-1-2.3-1.7    c-0.6-0.7-1.1-1.6-1.5-2.5c-0.3-1-0.5-2-0.5-3.1c0-1,0.2-1.9,0.5-2.9c0.3-1,0.8-1.8,1.4-2.6c0.6-0.8,1.4-1.4,2.3-1.8    s1.9-0.7,3.1-0.7c1,0,1.9,0.1,2.6,0.4c0.8,0.3,1.5,0.7,2,1.1s1.1,1.1,1.5,1.7s0.7,1.4,1,2.2h-2.8c-0.4-1.1-0.9-1.8-1.6-2.4    c-0.7-0.5-1.6-0.8-2.7-0.8c-0.7,0-1.3,0.2-1.8,0.5c-0.6,0.3-1,0.7-1.4,1.2c-0.4,0.5-0.7,1.1-0.9,1.8    C156.4-62.4,156.3-61.7,156.3-60.9z"/>
		<path d="M182.5-68.5v2.4H174v3.8h7.9v2.4H174v4.2h8.8v2.4h-11.5v-15.2H182.5z"/>
		<path d="M189.2-68.5l6.8,10.8v-10.8h2.7v15.2h-3l-6.8-10.8v10.8h-2.7v-15.2H189.2z"/>
		<path d="M213.1-68.5v2.4h-8.4v3.8h7.9v2.4h-7.9v4.2h8.8v2.4H202v-15.2H213.1z"/>
		<path d="M228.5-64c0,0.6-0.1,1.2-0.4,1.8c-0.3,0.6-0.6,1.1-1.1,1.5c0.3,0.2,0.5,0.3,0.7,0.5c0.2,0.2,0.3,0.4,0.4,0.7    c0.1,0.3,0.2,0.5,0.2,0.8c0,0.3,0,0.6,0,0.9v2.1c0,0.2,0.1,0.6,0.2,1c0.2,0.4,0.4,0.8,0.6,1.2h-3c-0.2-0.4-0.4-0.8-0.5-1.2    c-0.1-0.4-0.1-0.7-0.1-1v-2.3c0-0.2,0-0.4-0.1-0.6c-0.1-0.2-0.2-0.4-0.4-0.5c-0.2-0.2-0.4-0.3-0.7-0.4c-0.3-0.1-0.6-0.2-1-0.2h-4    v6.1h-2.7v-15.2h6.7c0.8,0,1.5,0.1,2.2,0.4c0.6,0.3,1.2,0.6,1.6,1.1c0.4,0.4,0.8,0.9,1,1.5C228.4-65,228.5-64.5,228.5-64z     M219.4-61.8h4c0.3,0,0.6-0.1,0.9-0.2c0.3-0.1,0.5-0.3,0.8-0.5c0.2-0.2,0.4-0.4,0.5-0.7s0.2-0.6,0.2-0.9c0-0.6-0.2-1.1-0.7-1.5    c-0.4-0.4-1-0.6-1.7-0.6h-4V-61.8z"/>
		<path d="M240-68.5l5.9,15.2H243l-1.7-4.3h-5.6l-1.7,4.3h-2.9l5.9-15.2H240z M238.5-65.1l-1.9,5h3.9L238.5-65.1z"/>
		<path d="M250.9-68.5v12.8h7.6v2.4h-10.2v-15.2H250.9z"/>
	</g>
</g>
<g>
	<path d="M-32.5-119.9v-39.9H0.9c3.4,0,5,2.3,5,4.9v35.1h-9.3v-30.4h-5.3v30.4h-9.2v-30.4H-23v30.4H-32.5z"/>
	<rect x="10.7" y="-159.8" width="9.7" height="39.9"/>
	<path d="M24.9-159.8h27.7c2.8,0,4.7,2,4.7,4.8v30.3c0,2.9-2.6,4.9-4.7,4.9H24.9v-24.7h9.4v15h13.7v-20.6H24.9V-159.8z"/>
	<rect x="62.1" y="-159.8" width="9.7" height="39.9"/>
	<rect x="-32.5" y="-116.4" width="104.4" height="13.2"/>
	<g>
		<path d="M-30.5-171c0,0.9,0.1,1.7,0.4,2.4c0.2,0.7,0.6,1.3,1,1.8s0.9,0.8,1.5,1.1c0.6,0.2,1.1,0.4,1.8,0.4c0.5,0,1-0.1,1.5-0.3    c0.5-0.2,0.9-0.5,1.3-0.9c0.4-0.4,0.7-0.8,1-1.3c0.3-0.5,0.4-1,0.5-1.6h-4.6v-2.4h7.3v8.4h-2l-0.3-1.8c-0.3,0.3-0.6,0.6-1,0.8    c-0.4,0.3-0.8,0.5-1.2,0.7c-0.4,0.2-0.8,0.4-1.2,0.5s-0.8,0.2-1.3,0.2c-1.1,0-2.2-0.2-3.1-0.6s-1.7-1-2.3-1.7    c-0.6-0.7-1.1-1.6-1.5-2.5c-0.3-1-0.5-2-0.5-3.1c0-1,0.2-1.9,0.5-2.9c0.3-1,0.8-1.8,1.4-2.6c0.6-0.8,1.4-1.4,2.3-1.8    s1.9-0.7,3.1-0.7c1,0,1.9,0.1,2.6,0.4c0.8,0.3,1.5,0.7,2,1.1s1.1,1.1,1.5,1.7s0.7,1.4,1,2.2h-2.8c-0.4-1.1-0.9-1.8-1.6-2.4    c-0.7-0.5-1.6-0.8-2.7-0.8c-0.7,0-1.3,0.2-1.8,0.5c-0.6,0.3-1,0.7-1.4,1.2c-0.4,0.5-0.7,1.1-0.9,1.8    C-30.3-172.5-30.5-171.7-30.5-171z"/>
		<path d="M-4.3-178.6v2.4h-8.4v3.8h7.9v2.4h-7.9v4.2h8.8v2.4h-11.5v-15.2H-4.3z"/>
		<path d="M2.4-178.6l6.8,10.8v-10.8h2.7v15.2h-3l-6.8-10.8v10.8h-2.7v-15.2H2.4z"/>
		<path d="M26.3-178.6v2.4h-8.4v3.8h7.9v2.4h-7.9v4.2h8.8v2.4H15.2v-15.2H26.3z"/>
		<path d="M41.8-174c0,0.6-0.1,1.2-0.4,1.8c-0.3,0.6-0.6,1.1-1.1,1.5c0.3,0.2,0.5,0.3,0.7,0.5c0.2,0.2,0.3,0.4,0.4,0.7    c0.1,0.3,0.2,0.5,0.2,0.8c0,0.3,0,0.6,0,0.9v2.1c0,0.2,0.1,0.6,0.2,1c0.2,0.4,0.4,0.8,0.6,1.2h-3c-0.2-0.4-0.4-0.8-0.5-1.2    c-0.1-0.4-0.1-0.7-0.1-1v-2.3c0-0.2,0-0.4-0.1-0.6c-0.1-0.2-0.2-0.4-0.4-0.5c-0.2-0.2-0.4-0.3-0.7-0.4c-0.3-0.1-0.6-0.2-1-0.2h-4    v6.1H30v-15.2h6.7c0.8,0,1.5,0.1,2.2,0.4c0.6,0.3,1.2,0.6,1.6,1.1c0.4,0.4,0.8,0.9,1,1.5C41.7-175.1,41.8-174.5,41.8-174z     M32.7-171.8h4c0.3,0,0.6-0.1,0.9-0.2c0.3-0.1,0.5-0.3,0.8-0.5c0.2-0.2,0.4-0.4,0.5-0.7s0.2-0.6,0.2-0.9c0-0.6-0.2-1.1-0.7-1.5    c-0.4-0.4-1-0.6-1.7-0.6h-4V-171.8z"/>
		<path d="M53.3-178.6l5.9,15.2h-2.8l-1.7-4.3H49l-1.7,4.3h-2.9l5.9-15.2H53.3z M51.8-175.1l-1.9,5h3.9L51.8-175.1z"/>
		<path d="M64.2-178.6v12.8h7.6v2.4H61.5v-15.2H64.2z"/>
	</g>
</g>
<g>
	<path d="M154.2,96.6V56.7h33.4c3.4,0,5,2.3,5,4.9v35.1h-9.3V66.2H178v30.4h-9.2V66.2h-5.2v30.4H154.2z"/>
	<rect x="197.4" y="56.7" width="9.7" height="39.9"/>
	<path d="M211.6,56.7h27.7c2.8,0,4.7,2,4.7,4.8v30.3c0,2.9-2.6,4.9-4.7,4.9h-27.7V72h9.4v15h13.7V66.4h-23.1V56.7z"/>
	<rect x="248.8" y="56.7" width="9.7" height="39.9"/>
	<rect x="154.2" y="100.1" width="150.1" height="13.2"/>
	<path d="M275.4,85.8l25.3-18.2c2.2-1.6,3.2-4.4,3.2-7.2v-10c0-6.7-5.6-12.1-12.4-12.1h-15.6c-6.9,0-12.4,5.4-12.4,12.1v7.1h11v-7.1   c0-0.8,0.6-1.4,1.4-1.4h15.6c0.8,0,1.4,0.6,1.4,1.4v7.9c0,1.1-0.5,2-1.4,2.6l-9.7,7.1l-14.4,10.4c-2.8,2-4.2,4.8-4.2,8.1v10.2h41.1   V85.8H275.4z"/>
	<g>
		<path d="M156.3,45.5c0,0.9,0.1,1.7,0.4,2.4c0.2,0.7,0.6,1.3,1,1.8s0.9,0.8,1.5,1.1c0.6,0.2,1.1,0.4,1.8,0.4c0.5,0,1-0.1,1.5-0.3    c0.5-0.2,0.9-0.5,1.3-0.9c0.4-0.4,0.7-0.8,1-1.3c0.3-0.5,0.4-1,0.5-1.6h-4.6v-2.4h7.3v8.4h-2l-0.3-1.8c-0.3,0.3-0.6,0.6-1,0.8    c-0.4,0.3-0.8,0.5-1.2,0.7c-0.4,0.2-0.8,0.4-1.2,0.5s-0.8,0.2-1.3,0.2c-1.1,0-2.2-0.2-3.1-0.6s-1.7-1-2.3-1.7    c-0.6-0.7-1.1-1.6-1.5-2.5c-0.3-1-0.5-2-0.5-3.1c0-1,0.2-1.9,0.5-2.9c0.3-1,0.8-1.8,1.4-2.6c0.6-0.8,1.4-1.4,2.3-1.8    s1.9-0.7,3.1-0.7c1,0,1.9,0.1,2.6,0.4c0.8,0.3,1.5,0.7,2,1.1s1.1,1.1,1.5,1.7s0.7,1.4,1,2.2h-2.8c-0.4-1.1-0.9-1.8-1.6-2.4    c-0.7-0.5-1.6-0.8-2.7-0.8c-0.7,0-1.3,0.2-1.8,0.5c-0.6,0.3-1,0.7-1.4,1.2c-0.4,0.5-0.7,1.1-0.9,1.8    C156.4,44.1,156.3,44.8,156.3,45.5z"/>
		<path d="M182.5,38v2.4H174v3.8h7.9v2.4H174v4.2h8.8v2.4h-11.5V38H182.5z"/>
		<path d="M189.2,38l6.8,10.8V38h2.7v15.2h-3l-6.8-10.8v10.8h-2.7V38H189.2z"/>
		<path d="M213.1,38v2.4h-8.4v3.8h7.9v2.4h-7.9v4.2h8.8v2.4H202V38H213.1z"/>
		<path d="M228.5,42.5c0,0.6-0.1,1.2-0.4,1.8c-0.3,0.6-0.6,1.1-1.1,1.5c0.3,0.2,0.5,0.3,0.7,0.5c0.2,0.2,0.3,0.4,0.4,0.7    c0.1,0.3,0.2,0.5,0.2,0.8c0,0.3,0,0.6,0,0.9V51c0,0.2,0.1,0.6,0.2,1c0.2,0.4,0.4,0.8,0.6,1.2h-3c-0.2-0.4-0.4-0.8-0.5-1.2    c-0.1-0.4-0.1-0.7-0.1-1v-2.3c0-0.2,0-0.4-0.1-0.6c-0.1-0.2-0.2-0.4-0.4-0.5c-0.2-0.2-0.4-0.3-0.7-0.4c-0.3-0.1-0.6-0.2-1-0.2h-4    v6.1h-2.7V38h6.7c0.8,0,1.5,0.1,2.2,0.4c0.6,0.3,1.2,0.6,1.6,1.1c0.4,0.4,0.8,0.9,1,1.5C228.4,41.4,228.5,42,228.5,42.5z     M219.4,44.7h4c0.3,0,0.6-0.1,0.9-0.2c0.3-0.1,0.5-0.3,0.8-0.5c0.2-0.2,0.4-0.4,0.5-0.7s0.2-0.6,0.2-0.9c0-0.6-0.2-1.1-0.7-1.5    c-0.4-0.4-1-0.6-1.7-0.6h-4V44.7z"/>
		<path d="M240,38l5.9,15.2H243l-1.7-4.3h-5.6l-1.7,4.3h-2.9l5.9-15.2H240z M238.5,41.4l-1.9,5h3.9L238.5,41.4z"/>
		<path d="M250.9,38v12.8h7.6v2.4h-10.2V38H250.9z"/>
	</g>
</g>
<g>
	<path d="M-78.2-29.8v-39.9h33.4c3.4,0,5,2.3,5,4.9v35.1H-49v-30.4h-5.3v30.4h-9.2v-30.4h-5.2v30.4H-78.2z"/>
	<rect x="-35" y="-69.7" width="9.7" height="39.9"/>
	<path d="M-20.8-69.7H6.9c2.8,0,4.7,2,4.7,4.8v30.3c0,2.9-2.6,4.9-4.7,4.9h-27.7v-24.7h9.4v15H2.3V-60h-23.1V-69.7z"/>
	<rect x="16.4" y="-69.7" width="9.7" height="39.9"/>
	<rect x="-78.2" y="-26.3" width="150.1" height="13.2"/>
	<path d="M43.1-40.6l25.3-18.2c2.2-1.6,3.2-4.4,3.2-7.2v-10c0-6.7-5.6-12.1-12.4-12.1H43.5C36.6-88.2,31-82.7,31-76v7.1h11V-76   c0-0.8,0.6-1.4,1.4-1.4h15.6c0.8,0,1.4,0.6,1.4,1.4v7.9c0,1.1-0.5,2-1.4,2.6l-9.7,7.1L35-48.1c-2.8,2-4.2,4.8-4.2,8.1v10.2h41.1   v-10.8H43.1z"/>
	<g>
		<path d="M-76.1-80.8c0,0.9,0.1,1.7,0.4,2.4c0.2,0.7,0.6,1.3,1,1.8s0.9,0.8,1.5,1.1c0.6,0.2,1.1,0.4,1.8,0.4c0.5,0,1-0.1,1.5-0.3    c0.5-0.2,0.9-0.5,1.3-0.9c0.4-0.4,0.7-0.8,1-1.3c0.3-0.5,0.4-1,0.5-1.6h-4.6v-2.4h7.3v8.4h-2l-0.3-1.8c-0.3,0.3-0.6,0.6-1,0.8    c-0.4,0.3-0.8,0.5-1.2,0.7c-0.4,0.2-0.8,0.4-1.2,0.5s-0.8,0.2-1.3,0.2c-1.1,0-2.2-0.2-3.1-0.6s-1.7-1-2.3-1.7    c-0.6-0.7-1.1-1.6-1.5-2.5c-0.3-1-0.5-2-0.5-3.1c0-1,0.2-1.9,0.5-2.9c0.3-1,0.8-1.8,1.4-2.6c0.6-0.8,1.4-1.4,2.3-1.8    s1.9-0.7,3.1-0.7c1,0,1.9,0.1,2.6,0.4c0.8,0.3,1.5,0.7,2,1.1s1.1,1.1,1.5,1.7s0.7,1.4,1,2.2h-2.8c-0.4-1.1-0.9-1.8-1.6-2.4    c-0.7-0.5-1.6-0.8-2.7-0.8c-0.7,0-1.3,0.2-1.8,0.5c-0.6,0.3-1,0.7-1.4,1.2c-0.4,0.5-0.7,1.1-0.9,1.8C-76-82.3-76.1-81.6-76.1-80.8    z"/>
		<path d="M-49.9-88.4v2.4h-8.4v3.8h7.9v2.4h-7.9v4.2h8.8v2.4H-61v-15.2H-49.9z"/>
		<path d="M-43.2-88.4l6.8,10.8v-10.8h2.7v15.2h-3l-6.8-10.8v10.8h-2.7v-15.2H-43.2z"/>
		<path d="M-19.3-88.4v2.4h-8.4v3.8h7.9v2.4h-7.9v4.2h8.8v2.4h-11.5v-15.2H-19.3z"/>
		<path d="M-3.9-83.9c0,0.6-0.1,1.2-0.4,1.8c-0.3,0.6-0.6,1.1-1.1,1.5c0.3,0.2,0.5,0.3,0.7,0.5c0.2,0.2,0.3,0.4,0.4,0.7    c0.1,0.3,0.2,0.5,0.2,0.8c0,0.3,0,0.6,0,0.9v2.1c0,0.2,0.1,0.6,0.2,1c0.2,0.4,0.4,0.8,0.6,1.2h-3c-0.2-0.4-0.4-0.8-0.5-1.2    c-0.1-0.4-0.1-0.7-0.1-1v-2.3c0-0.2,0-0.4-0.1-0.6c-0.1-0.2-0.2-0.4-0.4-0.5c-0.2-0.2-0.4-0.3-0.7-0.4c-0.3-0.1-0.6-0.2-1-0.2h-4    v6.1h-2.7v-15.2H-9c0.8,0,1.5,0.1,2.2,0.4c0.6,0.3,1.2,0.6,1.6,1.1c0.4,0.4,0.8,0.9,1,1.5C-4-84.9-3.9-84.4-3.9-83.9z M-13-81.7h4    c0.3,0,0.6-0.1,0.9-0.2c0.3-0.1,0.5-0.3,0.8-0.5c0.2-0.2,0.4-0.4,0.5-0.7s0.2-0.6,0.2-0.9c0-0.6-0.2-1.1-0.7-1.5    C-7.7-85.8-8.3-86-9-86h-4V-81.7z"/>
		<path d="M7.6-88.4l5.9,15.2h-2.8L9-77.6H3.3l-1.7,4.3h-2.9l5.9-15.2H7.6z M6.1-85l-1.9,5h3.9L6.1-85z"/>
		<path d="M18.5-88.4v12.8h7.6v2.4H15.8v-15.2H18.5z"/>
	</g>
</g>
<text transform="matrix(1.06 0 0 1 152.6509 -103.145)" style="font-family:'MyanmarSangamMN-Bold'; font-size:21.9329px; letter-spacing:0.9;">GENERAL</text>
</svg>