<?xml version="1.0" encoding="UTF-8"?>
<!-- Generator: Adobe Illustrator 21.0.0, SVG Export Plug-In . SVG Version: 6.00 Build 0)  -->
<svg version="1.1" id="_x3C_图层_x3E_" xmlns="http://www.w3.org/2000/svg" xmlns:xlink="http://www.w3.org/1999/xlink" x="0px" y="0px" viewBox="0 0 74.5 40" style="enable-background:new 0 0 74.5 40;" xml:space="preserve">
<g>
	<g>
		<path d="M199.4,88.7h-10.3l-7.8,7.8c-0.2,0.2-0.1,0.6,0.2,0.6c0.3,0,11.6,0,11.6,0l-6.7,6.6h-5.7c0,0-8.5-8.4-9.1-9    c-0.3-0.3-0.4-0.6-0.4-1c0-0.4,0.2-0.7,0.4-0.9c0.4-0.4,9.1-9.1,9.1-9.1h13.7c0,0,9.2-9.1,9.4-9.4c0.2-0.2,0.1-0.6-0.2-0.6    c-0.4,0-27.5,0-27.5,0s-18.5,18.5-19,19c-0.3,0.3-0.4,0.6-0.4,0.9c0,0.4,0.1,0.7,0.3,0.9c0.4,0.4,19.1,19.1,19.1,19.1h15.1    c0,0,15.2-15.2,15.7-15.7c0.5-0.5,0.5-1.4,0-1.9L199.4,88.7z"/>
		<path d="M211.1,73.8c0,0-8.6,8.5-9.1,9c-0.5,0.5-0.6,1.4-0.1,1.9c0.5,0.5,11,11,11.5,11.5c0.5,0.5,0.6,1.4,0,1.9    c-0.6,0.6-28.3,28.2-28.5,28.4c-0.2,0.2-0.1,0.6,0.2,0.6c0.3,0,13.8,0,13.8,0s28.5-28.4,29-28.9c0.6-0.6,0.6-1.4,0-2    c-0.6-0.5-11-11-11.4-11.5c-0.5-0.5-0.5-1.3,0-1.8c0.4-0.5,8.2-8.2,8.4-8.4c0.2-0.2,0.1-0.6-0.2-0.6    C224.6,73.8,211.1,73.8,211.1,73.8z"/>
	</g>
</g>
<g>
	<g>
		<path d="M45.4-61.7H35.1l-7.8,7.8c-0.2,0.2-0.1,0.6,0.2,0.6c0.3,0,11.6,0,11.6,0l-6.7,6.6h-5.7c0,0-8.5-8.4-9.1-9    c-0.3-0.3-0.4-0.6-0.4-1c0-0.4,0.2-0.7,0.4-0.9c0.4-0.4,9.1-9.1,9.1-9.1h13.7c0,0,9.2-9.1,9.4-9.4c0.2-0.2,0.1-0.6-0.2-0.6    c-0.4,0-27.5,0-27.5,0S3.6-58.2,3-57.6c-0.3,0.3-0.4,0.6-0.4,0.9c0,0.4,0.1,0.7,0.3,0.9C3.3-55.4,22-36.7,22-36.7h15.1    c0,0,15.2-15.2,15.7-15.7c0.5-0.5,0.5-1.4,0-1.9L45.4-61.7z"/>
		<path d="M57.1-76.7c0,0-8.6,8.5-9.1,9c-0.5,0.5-0.6,1.4-0.1,1.9c0.5,0.5,11,11,11.5,11.5c0.5,0.5,0.6,1.4,0,1.9    C58.8-51.8,31.2-24.2,31-24c-0.2,0.2-0.1,0.6,0.2,0.6c0.3,0,13.8,0,13.8,0s28.5-28.4,29-28.9c0.6-0.6,0.6-1.4,0-2    c-0.6-0.5-11-11-11.4-11.5c-0.5-0.5-0.5-1.3,0-1.8c0.4-0.5,8.2-8.2,8.4-8.4c0.2-0.2,0.1-0.6-0.2-0.6    C70.6-76.7,57.1-76.7,57.1-76.7z"/>
	</g>
</g>
<path d="M403.2,171.2h1l0.9,1l0.9-1h1l-1.3,1.6l1.4,1.7h-1l-0.9-1.2l-0.9,1.2h-1l1.4-1.6L403.2,171.2z"/>
<path d="M409.1,171.8h1.9v-0.6h-1.9c-1.3,0-1.9,0.5-1.9,1.7c0,0.6,0.2,1,0.6,1.3c0.4,0.3,0.8,0.3,1.3,0.3h1.9v-1.9h-2.1v0.6  c0,0,1,0,1,0c0,0,0.2-0.1,0.3-0.2l0.1,0.1c-0.1,0.1-0.2,0.1-0.2,0.2c0,0.1,0,0.4,0,0.4c0,0,0.1,0.1,0.2,0.2l-0.1,0.1  c-0.1-0.1-0.2-0.2-0.3-0.2c0,0-0.8,0-0.8,0c-0.7,0-1-0.3-1-1C408.1,172.1,408.4,171.8,409.1,171.8z"/>
<path d="M411.9,174.5v-3.3h0.8v3.3H411.9z"/>
<path d="M413.4,174.5v-2.4h0.8v2.4H413.4z M413.4,171.7v-0.5h0.8v0.5H413.4z"/>
<path d="M416.1,173.5c0,0,0-0.7,0-0.7c0-0.1-0.1-0.2-0.2-0.2l0.1-0.1c0.1,0.1,0.2,0.1,0.2,0.1s0.7,0,0.7,0v-0.5c0,0-0.7,0-0.7,0  c-0.1,0-0.1,0.1-0.2,0.1l-0.1-0.1c0.1-0.1,0.2-0.1,0.2-0.2c0-0.1,0-0.7,0-0.7h-0.8c0,0,0,0.7,0,0.7c0,0.1,0.1,0.1,0.2,0.2l-0.1,0.1  c-0.1-0.1-0.2-0.1-0.2-0.1c-0.1,0-0.4,0-0.4,0v0.5c0,0,0.4,0,0.4,0c0,0,0.1-0.1,0.2-0.1l0.1,0.1c-0.1,0.1-0.2,0.2-0.2,0.2  c0,0.1,0,0.9,0,0.9c0,0.5,0.3,0.8,0.9,0.8h0.7V174h-0.3C416.2,174,416.1,173.9,416.1,173.5z"/>
<path d="M420,161.7C419.9,161.7,419.9,161.6,420,161.7l-9.1,0l-2.3,2.7c0,0.1-0.1,0.1-0.2,0.1c-0.1,0-0.1,0-0.2,0  c-0.1,0-0.1-0.1-0.2-0.1l-2.3-2.7h-2.3c0,0-0.1,0-0.1,0c0,0,0,0.1,0,0.1c0,0,0,0.1,0,0.1l2.7,3.1c0.1,0.1,0.2,0.2,0.3,0.4  c0.2,0.2,0.3,0.5,0.3,0.8c0,0.3-0.1,0.6-0.3,0.8c-0.1,0.1-0.2,0.2-0.3,0.3l-2.7,3.2c0,0,0,0.1,0,0.1c0,0,0,0.1,0,0.1  c0,0,0.1,0,0.1,0h2.3l2.3-2.7c0-0.1,0.1-0.1,0.2-0.1c0.1,0,0.1,0,0.2,0c0.1,0,0.1,0.1,0.2,0.1l2.3,2.7h9.1c0,0,0.1,0,0.1,0  c0,0,0-0.1,0-0.1L420,161.7C420,161.7,420,161.7,420,161.7z M419.2,164C419.2,164,419.2,164,419.2,164c-0.1,0.1-0.1,0.1-0.1,0.1  h-5.2c-0.1,0-0.1,0-0.2,0c-0.1,0-0.1,0.1-0.1,0.1l-1.4,1.7c-0.1,0.1-0.1,0.2-0.1,0.2c0,0.1,0,0.2,0.1,0.3l1.4,1.7  c0,0,0.1,0.1,0.1,0.1c0.1,0,0.1,0,0.2,0h3.6v-1.3h-1.9c0,0-0.1,0-0.1,0c0,0,0-0.1,0-0.1v-1.3c0,0,0-0.1,0-0.1c0,0,0.1,0,0.1,0h3.6  c0,0,0.1,0,0.1,0c0,0,0,0.1,0,0.1v4.2c0,0,0,0.1,0,0.1c0,0-0.1,0-0.1,0h-5.8c-0.2,0-0.4,0-0.5-0.1c-0.2-0.1-0.3-0.2-0.4-0.3  l-1.9-2.1c-0.1-0.1-0.2-0.2-0.3-0.3c-0.2-0.2-0.3-0.5-0.3-0.8c0-0.3,0.1-0.6,0.3-0.8c0.1-0.1,0.2-0.2,0.3-0.4l1.9-2.2  c0.1-0.1,0.3-0.3,0.4-0.3c0.2-0.1,0.4-0.1,0.5-0.1h5.8c0,0,0.1,0,0.1,0c0,0,0,0.1,0,0.1V164z"/>
<path d="M237.8,152.3c-0.1-0.1-0.2-0.2-0.4-0.2h-40.2L186.9,164c-0.2,0.2-0.5,0.4-0.8,0.5c-0.3,0.1-0.6,0.1-0.9,0  c-0.3-0.1-0.6-0.3-0.8-0.5l-10.3-11.9h-10.1c-0.1,0-0.3,0.1-0.4,0.2c-0.1,0.1-0.2,0.2-0.2,0.4c0,0.1,0,0.3,0.1,0.4l12.1,13.9  c0.4,0.5,0.9,1.1,1.3,1.6c0.8,1,1.2,2.2,1.2,3.5c0,1.3-0.4,2.5-1.2,3.5c-0.4,0.5-0.8,1.1-1.3,1.6l-12.1,14c-0.1,0.1-0.1,0.3-0.1,0.4  c0,0.1,0.1,0.3,0.2,0.4c0.1,0.1,0.3,0.2,0.4,0.2h10.1l10.3-11.9c0.2-0.2,0.5-0.4,0.8-0.5c0.3-0.1,0.6-0.1,0.9,0  c0.3,0.1,0.6,0.3,0.8,0.5l10.3,11.9h40.2c0.2,0,0.3-0.1,0.4-0.2c0.1-0.1,0.2-0.3,0.2-0.4v-38.8C238,152.6,237.9,152.4,237.8,152.3z   M234.6,162.4c0,0.2-0.1,0.3-0.2,0.4c-0.1,0.1-0.3,0.2-0.4,0.2h-23.2c-0.2,0-0.5,0.1-0.7,0.2c-0.2,0.1-0.4,0.3-0.6,0.5l-6.3,7.5  c-0.3,0.3-0.4,0.7-0.4,1.1c0,0.4,0.1,0.8,0.4,1.1l6.3,7.4c0.2,0.2,0.4,0.3,0.6,0.5c0.2,0.1,0.5,0.2,0.7,0.2h15.8v-5.7H218  c-0.1,0-0.3,0-0.4-0.1c-0.1-0.1-0.2-0.3-0.2-0.4v-5.8c0-0.1,0.1-0.3,0.2-0.4c0.1-0.1,0.3-0.2,0.4-0.2h16c0.1,0,0.3,0.1,0.4,0.2  c0.1,0.1,0.2,0.2,0.2,0.4v18.8c0,0.2-0.1,0.3-0.2,0.4c-0.1,0.1-0.3,0.2-0.4,0.2h-25.7c-0.8,0-1.6-0.2-2.4-0.5  c-0.7-0.4-1.4-0.9-2-1.5l-8.2-9.5c-0.4-0.5-0.9-1-1.3-1.6c-0.8-1-1.2-2.2-1.2-3.5c0-1.2,0.4-2.5,1.2-3.5c0.4-0.6,0.8-1.1,1.3-1.6  l8.2-9.5c0.5-0.6,1.2-1.1,2-1.5c0.8-0.3,1.6-0.5,2.4-0.5H234c0.1,0,0.3,0.1,0.4,0.2c0.1,0.1,0.2,0.3,0.2,0.4V162.4z"/>
<path d="M74.3,0.2C74.2,0.1,74.1,0,73.9,0H33.7L23.4,11.9c-0.2,0.2-0.5,0.4-0.8,0.5c-0.3,0.1-0.6,0.1-0.9,0  c-0.3-0.1-0.6-0.3-0.8-0.5L10.6,0H0.6C0.4,0,0.3,0.1,0.2,0.2C0.1,0.3,0,0.4,0,0.6C0,0.7,0,0.8,0.1,1l12.1,13.9  c0.4,0.5,0.9,1.1,1.3,1.6c0.8,1,1.2,2.2,1.2,3.5c0,1.3-0.4,2.5-1.2,3.5c-0.4,0.5-0.8,1.1-1.3,1.6L0.1,39C0,39.1,0,39.3,0,39.4  c0,0.1,0.1,0.3,0.2,0.4C0.3,39.9,0.4,40,0.6,40h10.1L20.9,28c0.2-0.2,0.5-0.4,0.8-0.5c0.3-0.1,0.6-0.1,0.9,0  c0.3,0.1,0.6,0.3,0.8,0.5L33.7,40h40.2c0.2,0,0.3-0.1,0.4-0.2c0.1-0.1,0.2-0.3,0.2-0.4V0.6C74.5,0.4,74.4,0.3,74.3,0.2z M71.1,10.2  c0,0.2-0.1,0.3-0.2,0.4c-0.1,0.1-0.3,0.2-0.4,0.2H47.3c-0.2,0-0.5,0.1-0.7,0.2c-0.2,0.1-0.4,0.3-0.6,0.5l-6.3,7.5  c-0.3,0.3-0.4,0.7-0.4,1.1c0,0.4,0.1,0.8,0.4,1.1l6.3,7.4c0.2,0.2,0.4,0.3,0.6,0.5c0.2,0.1,0.5,0.2,0.7,0.2h15.8v-5.7h-8.6  c-0.1,0-0.3,0-0.4-0.1C54,23.2,54,23,54,22.9v-5.8c0-0.1,0.1-0.3,0.2-0.4c0.1-0.1,0.3-0.2,0.4-0.2h16c0.1,0,0.3,0.1,0.4,0.2  c0.1,0.1,0.2,0.2,0.2,0.4v18.8c0,0.2-0.1,0.3-0.2,0.4c-0.1,0.1-0.3,0.2-0.4,0.2H44.7c-0.8,0-1.6-0.2-2.4-0.5c-0.7-0.4-1.4-0.9-2-1.5  L32.2,25c-0.4-0.5-0.9-1-1.3-1.6c-0.8-1-1.2-2.2-1.2-3.5c0-1.2,0.4-2.5,1.2-3.5c0.4-0.6,0.8-1.1,1.3-1.6l8.2-9.5  c0.5-0.6,1.2-1.1,2-1.5c0.8-0.3,1.6-0.5,2.4-0.5h25.7c0.1,0,0.3,0.1,0.4,0.2c0.1,0.1,0.2,0.3,0.2,0.4V10.2z"/>
<path d="M420,172.6v-0.5h-1.2c-1,0-1.5,0.4-1.5,1.2c0,0.8,0.5,1.2,1.5,1.2h1.2V174h-1.1c-0.4,0-0.6,0-0.7-0.3c0,0,0,0,0-0.1  c0,0-0.2-0.2-0.2-0.2l0.1-0.1c0,0,0.2,0.1,0.2,0.1c0.1,0,1.7,0,1.7,0V173c0,0-1.7,0-1.7,0c-0.1,0-0.2,0.1-0.2,0.1l-0.1-0.1  c0,0,0.1-0.1,0.2-0.2c0,0,0.1-0.1,0.1-0.1l0,0c0.1-0.2,0.3-0.2,0.7-0.2H420z"/>
<g>
	<g>
		<path d="M427.2,165.1c-0.1,0.6-0.1,1.7,1.8,1.7c1,0,2.2-0.2,2.5-1.3c0.2-0.8-0.6-1-1.6-1.3l-1.1-0.3c-1.6-0.4-3.1-0.8-2.7-3.1    c0.2-1.2,1.3-3.2,4.7-3.2c3.2,0,3.6,2.1,3.3,3.4h-2.1c0-0.5,0.1-1.6-1.8-1.6c-0.8,0-1.9,0.3-2.1,1.2c-0.2,0.8,0.5,1,0.9,1.1    l2.4,0.6c1.3,0.3,2.5,0.9,2.1,2.8c-0.7,3.1-3.9,3.4-4.8,3.4c-3.8,0-4-2.2-3.7-3.5H427.2z"/>
		<path d="M444.6,168.3h-2l1.8-8.7h0l-3.8,8.7h-2.1l0-8.7h0l-1.8,8.7h-2l2.2-10.4h3.2l0.1,8.2h0l3.6-8.2h3.1L444.6,168.3z"/>
		<path d="M448.9,168.3h-2.2l2.2-10.4h7.4l-0.4,1.8h-5.2l-0.5,2.3h4.6l-0.4,1.8h-4.6L448.9,168.3z"/>
	</g>
	<g>
		<path d="M426.3,173.5h2.6l-0.2,0.9H425l1.1-5.2h1.1L426.3,173.5z"/>
		<path d="M431.7,174.5h-1.1l0.4-2l-1.1-3.2h1.3l0.6,2.3l1.5-2.3h1.2l-2.4,3.2L431.7,174.5z"/>
		<path d="M435.9,169.3h2.6c1.4,0,1.4,1,1.3,1.5c-0.1,0.6-0.5,1.1-1.1,1.2c0.4,0.2,0.6,0.3,0.4,1.3c-0.2,0.8-0.2,0.9,0,1l0,0.1H438    c0-0.2,0-0.5,0.1-1c0.2-0.7,0.2-1-0.6-1h-1.1l-0.4,2h-1.1L435.9,169.3z M437.8,171.6c0.6,0,0.9-0.2,1-0.7c0.1-0.3,0-0.7-0.6-0.7    h-1.4l-0.3,1.4H437.8z"/>
		<path d="M441.8,174.5h-1.1l1.1-5.2h1.1L441.8,174.5z"/>
		<path d="M447.5,171c0-0.3-0.1-0.9-1-0.9c-0.5,0-1.4,0.4-1.7,1.8c-0.2,0.9,0,1.8,0.9,1.8c0.6,0,1.1-0.3,1.4-1h1.1    c-0.5,1.1-1.4,1.9-2.7,1.9c-1.4,0-2.2-0.9-1.8-2.7c0.4-1.8,1.6-2.7,3-2.7c1.5,0,2,1.1,1.8,1.8H447.5z"/>
		<path d="M450.5,172.9c-0.1,0.3,0,0.8,0.9,0.8c0.5,0,1.1-0.1,1.2-0.7c0.1-0.4-0.3-0.5-0.8-0.6l-0.5-0.1c-0.8-0.2-1.6-0.4-1.3-1.5    c0.1-0.6,0.6-1.6,2.3-1.6c1.6,0,1.8,1,1.7,1.7h-1c0-0.2,0.1-0.8-0.9-0.8c-0.4,0-0.9,0.1-1,0.6c-0.1,0.4,0.2,0.5,0.4,0.5l1.2,0.3    c0.7,0.2,1.3,0.5,1.1,1.4c-0.3,1.6-1.9,1.7-2.4,1.7c-1.9,0-2-1.1-1.9-1.7H450.5z"/>
	</g>
</g>
<g>
	<path d="M156.8-86.8v-39.9h33.4c3.4,0,5,2.3,5,4.9v35.1H186v-30.4h-5.3v30.4h-9.2v-30.4h-5.2v30.4H156.8z"/>
	<rect x="200" y="-126.7" width="9.7" height="39.9"/>
	<path d="M214.2-126.7h27.7c2.8,0,4.7,2,4.7,4.8v30.3c0,2.9-2.6,4.9-4.7,4.9h-27.7v-24.7h9.4v15h13.7V-117h-23.1V-126.7z"/>
	<rect x="251.4" y="-126.7" width="9.7" height="39.9"/>
	<rect x="156.8" y="-83.3" width="104.4" height="13.2"/>
	<g>
		<path d="M158.9-137.9c0,0.9,0.1,1.7,0.4,2.4c0.2,0.7,0.6,1.3,1,1.8s0.9,0.8,1.5,1.1c0.6,0.2,1.1,0.4,1.8,0.4c0.5,0,1-0.1,1.5-0.3    c0.5-0.2,0.9-0.5,1.3-0.9c0.4-0.4,0.7-0.8,1-1.3c0.3-0.5,0.4-1,0.5-1.6h-4.6v-2.4h7.3v8.4h-2l-0.3-1.8c-0.3,0.3-0.6,0.6-1,0.8    c-0.4,0.3-0.8,0.5-1.2,0.7c-0.4,0.2-0.8,0.4-1.2,0.5s-0.8,0.2-1.3,0.2c-1.1,0-2.2-0.2-3.1-0.6s-1.7-1-2.3-1.7    c-0.6-0.7-1.1-1.6-1.5-2.5c-0.3-1-0.5-2-0.5-3.1c0-1,0.2-1.9,0.5-2.9c0.3-1,0.8-1.8,1.4-2.6c0.6-0.8,1.4-1.4,2.3-1.8    s1.9-0.7,3.1-0.7c1,0,1.9,0.1,2.6,0.4c0.8,0.3,1.5,0.7,2,1.1s1.1,1.1,1.5,1.7s0.7,1.4,1,2.2h-2.8c-0.4-1.1-0.9-1.8-1.6-2.4    c-0.7-0.5-1.6-0.8-2.7-0.8c-0.7,0-1.3,0.2-1.8,0.5c-0.6,0.3-1,0.7-1.4,1.2c-0.4,0.5-0.7,1.1-0.9,1.8    C159-139.3,158.9-138.6,158.9-137.9z"/>
		<path d="M185.1-145.5v2.4h-8.4v3.8h7.9v2.4h-7.9v4.2h8.8v2.4H174v-15.2H185.1z"/>
		<path d="M191.8-145.5l6.8,10.8v-10.8h2.7v15.2h-3l-6.8-10.8v10.8h-2.7v-15.2H191.8z"/>
		<path d="M215.7-145.5v2.4h-8.4v3.8h7.9v2.4h-7.9v4.2h8.8v2.4h-11.5v-15.2H215.7z"/>
		<path d="M231.1-140.9c0,0.6-0.1,1.2-0.4,1.8c-0.3,0.6-0.6,1.1-1.1,1.5c0.3,0.2,0.5,0.3,0.7,0.5c0.2,0.2,0.3,0.4,0.4,0.7    c0.1,0.3,0.2,0.5,0.2,0.8c0,0.3,0,0.6,0,0.9v2.1c0,0.2,0.1,0.6,0.2,1c0.2,0.4,0.4,0.8,0.6,1.2h-3c-0.2-0.4-0.4-0.8-0.5-1.2    c-0.1-0.4-0.1-0.7-0.1-1v-2.3c0-0.2,0-0.4-0.1-0.6c-0.1-0.2-0.2-0.4-0.4-0.5c-0.2-0.2-0.4-0.3-0.7-0.4c-0.3-0.1-0.6-0.2-1-0.2h-4    v6.1h-2.7v-15.2h6.7c0.8,0,1.5,0.1,2.2,0.4c0.6,0.3,1.2,0.6,1.6,1.1c0.4,0.4,0.8,0.9,1,1.5C231-142,231.1-141.4,231.1-140.9z     M222-138.7h4c0.3,0,0.6-0.1,0.9-0.2c0.3-0.1,0.5-0.3,0.8-0.5c0.2-0.2,0.4-0.4,0.5-0.7s0.2-0.6,0.2-0.9c0-0.6-0.2-1.1-0.7-1.5    c-0.4-0.4-1-0.6-1.7-0.6h-4V-138.7z"/>
		<path d="M242.6-145.5l5.9,15.2h-2.8l-1.7-4.3h-5.6l-1.7,4.3h-2.9l5.9-15.2H242.6z M241.1-142l-1.9,5h3.9L241.1-142z"/>
		<path d="M253.5-145.5v12.8h7.6v2.4h-10.2v-15.2H253.5z"/>
	</g>
</g>
<g>
	<path d="M-29.9-196.8v-39.9H3.5c3.4,0,5,2.3,5,4.9v35.1h-9.3v-30.4h-5.3v30.4h-9.2v-30.4h-5.2v30.4H-29.9z"/>
	<rect x="13.3" y="-236.8" width="9.7" height="39.9"/>
	<path d="M27.5-236.8h27.7c2.8,0,4.7,2,4.7,4.8v30.3c0,2.9-2.6,4.9-4.7,4.9H27.5v-24.7h9.4v15h13.7V-227H27.5V-236.8z"/>
	<rect x="64.7" y="-236.8" width="9.7" height="39.9"/>
	<rect x="-29.9" y="-193.4" width="104.4" height="13.2"/>
	<g>
		<path d="M-27.9-247.9c0,0.9,0.1,1.7,0.4,2.4c0.2,0.7,0.6,1.3,1,1.8s0.9,0.8,1.5,1.1c0.6,0.2,1.1,0.4,1.8,0.4c0.5,0,1-0.1,1.5-0.3    c0.5-0.2,0.9-0.5,1.3-0.9c0.4-0.4,0.7-0.8,1-1.3c0.3-0.5,0.4-1,0.5-1.6h-4.6v-2.4h7.3v8.4h-2l-0.3-1.8c-0.3,0.3-0.6,0.6-1,0.8    c-0.4,0.3-0.8,0.5-1.2,0.7c-0.4,0.2-0.8,0.4-1.2,0.5s-0.8,0.2-1.3,0.2c-1.1,0-2.2-0.2-3.1-0.6s-1.7-1-2.3-1.7    c-0.6-0.7-1.1-1.6-1.5-2.5c-0.3-1-0.5-2-0.5-3.1c0-1,0.2-1.9,0.5-2.9c0.3-1,0.8-1.8,1.4-2.6c0.6-0.8,1.4-1.4,2.3-1.8    s1.9-0.7,3.1-0.7c1,0,1.9,0.1,2.6,0.4c0.8,0.3,1.5,0.7,2,1.1s1.1,1.1,1.5,1.7s0.7,1.4,1,2.2H-19c-0.4-1.1-0.9-1.8-1.6-2.4    c-0.7-0.5-1.6-0.8-2.7-0.8c-0.7,0-1.3,0.2-1.8,0.5c-0.6,0.3-1,0.7-1.4,1.2c-0.4,0.5-0.7,1.1-0.9,1.8    C-27.7-249.4-27.9-248.7-27.9-247.9z"/>
		<path d="M-1.7-255.5v2.4h-8.4v3.8h7.9v2.4h-7.9v4.2h8.8v2.4h-11.5v-15.2H-1.7z"/>
		<path d="M5-255.5l6.8,10.8v-10.8h2.7v15.2h-3l-6.8-10.8v10.8H2v-15.2H5z"/>
		<path d="M28.9-255.5v2.4h-8.4v3.8h7.9v2.4h-7.9v4.2h8.8v2.4H17.8v-15.2H28.9z"/>
		<path d="M44.4-250.9c0,0.6-0.1,1.2-0.4,1.8c-0.3,0.6-0.6,1.1-1.1,1.5c0.3,0.2,0.5,0.3,0.7,0.5c0.2,0.2,0.3,0.4,0.4,0.7    c0.1,0.3,0.2,0.5,0.2,0.8c0,0.3,0,0.6,0,0.9v2.1c0,0.2,0.1,0.6,0.2,1c0.2,0.4,0.4,0.8,0.6,1.2h-3c-0.2-0.4-0.4-0.8-0.5-1.2    c-0.1-0.4-0.1-0.7-0.1-1v-2.3c0-0.2,0-0.4-0.1-0.6c-0.1-0.2-0.2-0.4-0.4-0.5c-0.2-0.2-0.4-0.3-0.7-0.4c-0.3-0.1-0.6-0.2-1-0.2h-4    v6.1h-2.7v-15.2h6.7c0.8,0,1.5,0.1,2.2,0.4c0.6,0.3,1.2,0.6,1.6,1.1c0.4,0.4,0.8,0.9,1,1.5C44.3-252,44.4-251.5,44.4-250.9z     M35.3-248.7h4c0.3,0,0.6-0.1,0.9-0.2c0.3-0.1,0.5-0.3,0.8-0.5c0.2-0.2,0.4-0.4,0.5-0.7s0.2-0.6,0.2-0.9c0-0.6-0.2-1.1-0.7-1.5    c-0.4-0.4-1-0.6-1.7-0.6h-4V-248.7z"/>
		<path d="M55.9-255.5l5.9,15.2h-2.8l-1.7-4.3h-5.6l-1.7,4.3H47l5.9-15.2H55.9z M54.4-252l-1.9,5h3.9L54.4-252z"/>
		<path d="M66.8-255.5v12.8h7.6v2.4H64.1v-15.2H66.8z"/>
	</g>
</g>
<g>
	<path d="M156.8,19.7v-39.9h33.4c3.4,0,5,2.3,5,4.9v35.1H186v-30.4h-5.3v30.4h-9.2v-30.4h-5.2v30.4H156.8z"/>
	<rect x="200" y="-20.3" width="9.7" height="39.9"/>
	<path d="M214.2-20.3h27.7c2.8,0,4.7,2,4.7,4.8v30.3c0,2.9-2.6,4.9-4.7,4.9h-27.7V-5h9.4v15h13.7v-20.6h-23.1V-20.3z"/>
	<rect x="251.4" y="-20.3" width="9.7" height="39.9"/>
	<rect x="156.8" y="23.1" width="150.1" height="13.2"/>
	<path d="M278,8.9l25.3-18.2c2.2-1.6,3.2-4.4,3.2-7.2v-10c0-6.7-5.6-12.1-12.4-12.1h-15.6c-6.9,0-12.4,5.4-12.4,12.1v7.1h11v-7.1   c0-0.8,0.6-1.4,1.4-1.4H294c0.8,0,1.4,0.6,1.4,1.4v7.9c0,1.1-0.5,2-1.4,2.6L284.4-9L270,1.3c-2.8,2-4.2,4.8-4.2,8.1v10.2h41.1V8.9   H278z"/>
	<g>
		<path d="M158.9-31.4c0,0.9,0.1,1.7,0.4,2.4c0.2,0.7,0.6,1.3,1,1.8s0.9,0.8,1.5,1.1c0.6,0.2,1.1,0.4,1.8,0.4c0.5,0,1-0.1,1.5-0.3    c0.5-0.2,0.9-0.5,1.3-0.9c0.4-0.4,0.7-0.8,1-1.3c0.3-0.5,0.4-1,0.5-1.6h-4.6v-2.4h7.3v8.4h-2l-0.3-1.8c-0.3,0.3-0.6,0.6-1,0.8    c-0.4,0.3-0.8,0.5-1.2,0.7c-0.4,0.2-0.8,0.4-1.2,0.5s-0.8,0.2-1.3,0.2c-1.1,0-2.2-0.2-3.1-0.6s-1.7-1-2.3-1.7    c-0.6-0.7-1.1-1.6-1.5-2.5c-0.3-1-0.5-2-0.5-3.1c0-1,0.2-1.9,0.5-2.9c0.3-1,0.8-1.8,1.4-2.6c0.6-0.8,1.4-1.4,2.3-1.8    s1.9-0.7,3.1-0.7c1,0,1.9,0.1,2.6,0.4c0.8,0.3,1.5,0.7,2,1.1s1.1,1.1,1.5,1.7s0.7,1.4,1,2.2h-2.8c-0.4-1.1-0.9-1.8-1.6-2.4    c-0.7-0.5-1.6-0.8-2.7-0.8c-0.7,0-1.3,0.2-1.8,0.5c-0.6,0.3-1,0.7-1.4,1.2c-0.4,0.5-0.7,1.1-0.9,1.8    C159-32.9,158.9-32.1,158.9-31.4z"/>
		<path d="M185.1-39v2.4h-8.4v3.8h7.9v2.4h-7.9v4.2h8.8v2.4H174V-39H185.1z"/>
		<path d="M191.8-39l6.8,10.8V-39h2.7v15.2h-3l-6.8-10.8v10.8h-2.7V-39H191.8z"/>
		<path d="M215.7-39v2.4h-8.4v3.8h7.9v2.4h-7.9v4.2h8.8v2.4h-11.5V-39H215.7z"/>
		<path d="M231.1-34.4c0,0.6-0.1,1.2-0.4,1.8c-0.3,0.6-0.6,1.1-1.1,1.5c0.3,0.2,0.5,0.3,0.7,0.5c0.2,0.2,0.3,0.4,0.4,0.7    c0.1,0.3,0.2,0.5,0.2,0.8c0,0.3,0,0.6,0,0.9v2.1c0,0.2,0.1,0.6,0.2,1c0.2,0.4,0.4,0.8,0.6,1.2h-3c-0.2-0.4-0.4-0.8-0.5-1.2    c-0.1-0.4-0.1-0.7-0.1-1v-2.3c0-0.2,0-0.4-0.1-0.6c-0.1-0.2-0.2-0.4-0.4-0.5c-0.2-0.2-0.4-0.3-0.7-0.4c-0.3-0.1-0.6-0.2-1-0.2h-4    v6.1h-2.7V-39h6.7c0.8,0,1.5,0.1,2.2,0.4c0.6,0.3,1.2,0.6,1.6,1.1c0.4,0.4,0.8,0.9,1,1.5C231-35.5,231.1-35,231.1-34.4z M222-32.2    h4c0.3,0,0.6-0.1,0.9-0.2c0.3-0.1,0.5-0.3,0.8-0.5c0.2-0.2,0.4-0.4,0.5-0.7s0.2-0.6,0.2-0.9c0-0.6-0.2-1.1-0.7-1.5    c-0.4-0.4-1-0.6-1.7-0.6h-4V-32.2z"/>
		<path d="M242.6-39l5.9,15.2h-2.8l-1.7-4.3h-5.6l-1.7,4.3h-2.9l5.9-15.2H242.6z M241.1-35.5l-1.9,5h3.9L241.1-35.5z"/>
		<path d="M253.5-39v12.8h7.6v2.4h-10.2V-39H253.5z"/>
	</g>
</g>
<g>
	<path d="M-75.6-106.7v-39.9h33.4c3.4,0,5,2.3,5,4.9v35.1h-9.3v-30.4h-5.3v30.4h-9.2v-30.4h-5.2v30.4H-75.6z"/>
	<rect x="-32.4" y="-146.6" width="9.7" height="39.9"/>
	<path d="M-18.2-146.6H9.5c2.8,0,4.7,2,4.7,4.8v30.3c0,2.9-2.6,4.9-4.7,4.9h-27.7v-24.7h9.4v15H4.9v-20.6h-23.1V-146.6z"/>
	<rect x="19" y="-146.6" width="9.7" height="39.9"/>
	<rect x="-75.6" y="-103.3" width="150.1" height="13.2"/>
	<path d="M45.7-117.5l25.3-18.2c2.2-1.6,3.2-4.4,3.2-7.2v-10c0-6.7-5.6-12.1-12.4-12.1H46.1c-6.9,0-12.4,5.4-12.4,12.1v7.1h11v-7.1   c0-0.8,0.6-1.4,1.4-1.4h15.6c0.8,0,1.4,0.6,1.4,1.4v7.9c0,1.1-0.5,2-1.4,2.6l-9.7,7.1L37.6-125c-2.8,2-4.2,4.8-4.2,8.1v10.2h41.1   v-10.8H45.7z"/>
	<g>
		<path d="M-73.5-157.8c0,0.9,0.1,1.7,0.4,2.4c0.2,0.7,0.6,1.3,1,1.8s0.9,0.8,1.5,1.1c0.6,0.2,1.1,0.4,1.8,0.4c0.5,0,1-0.1,1.5-0.3    c0.5-0.2,0.9-0.5,1.3-0.9c0.4-0.4,0.7-0.8,1-1.3c0.3-0.5,0.4-1,0.5-1.6h-4.6v-2.4h7.3v8.4h-2l-0.3-1.8c-0.3,0.3-0.6,0.6-1,0.8    c-0.4,0.3-0.8,0.5-1.2,0.7c-0.4,0.2-0.8,0.4-1.2,0.5s-0.8,0.2-1.3,0.2c-1.1,0-2.2-0.2-3.1-0.6s-1.7-1-2.3-1.7    c-0.6-0.7-1.1-1.6-1.5-2.5c-0.3-1-0.5-2-0.5-3.1c0-1,0.2-1.9,0.5-2.9c0.3-1,0.8-1.8,1.4-2.6c0.6-0.8,1.4-1.4,2.3-1.8    s1.9-0.7,3.1-0.7c1,0,1.9,0.1,2.6,0.4c0.8,0.3,1.5,0.7,2,1.1s1.1,1.1,1.5,1.7s0.7,1.4,1,2.2h-2.8c-0.4-1.1-0.9-1.8-1.6-2.4    c-0.7-0.5-1.6-0.8-2.7-0.8c-0.7,0-1.3,0.2-1.8,0.5c-0.6,0.3-1,0.7-1.4,1.2c-0.4,0.5-0.7,1.1-0.9,1.8    C-73.4-159.3-73.5-158.5-73.5-157.8z"/>
		<path d="M-47.3-165.4v2.4h-8.4v3.8h7.9v2.4h-7.9v4.2h8.8v2.4h-11.5v-15.2H-47.3z"/>
		<path d="M-40.6-165.4l6.8,10.8v-10.8h2.7v15.2h-3L-41-161v10.8h-2.7v-15.2H-40.6z"/>
		<path d="M-16.7-165.4v2.4h-8.4v3.8h7.9v2.4h-7.9v4.2h8.8v2.4h-11.5v-15.2H-16.7z"/>
		<path d="M-1.3-160.8c0,0.6-0.1,1.2-0.4,1.8c-0.3,0.6-0.6,1.1-1.1,1.5c0.3,0.2,0.5,0.3,0.7,0.5c0.2,0.2,0.3,0.4,0.4,0.7    c0.1,0.3,0.2,0.5,0.2,0.8c0,0.3,0,0.6,0,0.9v2.1c0,0.2,0.1,0.6,0.2,1c0.2,0.4,0.4,0.8,0.6,1.2h-3c-0.2-0.4-0.4-0.8-0.5-1.2    c-0.1-0.4-0.1-0.7-0.1-1v-2.3c0-0.2,0-0.4-0.1-0.6c-0.1-0.2-0.2-0.4-0.4-0.5c-0.2-0.2-0.4-0.3-0.7-0.4c-0.3-0.1-0.6-0.2-1-0.2h-4    v6.1h-2.7v-15.2h6.7c0.8,0,1.5,0.1,2.2,0.4c0.6,0.3,1.2,0.6,1.6,1.1c0.4,0.4,0.8,0.9,1,1.5C-1.4-161.9-1.3-161.3-1.3-160.8z     M-10.4-158.6h4c0.3,0,0.6-0.1,0.9-0.2c0.3-0.1,0.5-0.3,0.8-0.5c0.2-0.2,0.4-0.4,0.5-0.7s0.2-0.6,0.2-0.9c0-0.6-0.2-1.1-0.7-1.5    c-0.4-0.4-1-0.6-1.7-0.6h-4V-158.6z"/>
		<path d="M10.2-165.4l5.9,15.2h-2.8l-1.7-4.3H5.9l-1.7,4.3H1.4l5.9-15.2H10.2z M8.7-161.9l-1.9,5h3.9L8.7-161.9z"/>
		<path d="M21.1-165.4v12.8h7.6v2.4H18.4v-15.2H21.1z"/>
	</g>
</g>
<text transform="matrix(1.06 0 0 1 155.2534 -180.0774)" style="font-family:'MyanmarSangamMN-Bold'; font-size:21.9329px; letter-spacing:0.9;">GENERAL</text>
</svg>